<svg xmlns="http://www.w3.org/2000/svg" width="49" height="83.798" viewBox="0 0 49 83.798">
  <path id="Union_16" data-name="Union 16" d="M-3658.806-940.868v-62.769h-2.076a6.044,6.044,0,0,0-3.316,3.735c-.693,2.038-10.707,30.264-16.624,46.936l.965,12.1h-20.785l4.761-59.677-5.869-2.121v-14h.1l8.892-3h5.309l8.593,3h.1v14l-5.874,2.052,2.565,32.142,13.31-31.43v-8.764h0v-14h-7v-2h23v2h-15v12h1a6.266,6.266,0,0,1,6.5-6,6.77,6.77,0,0,1,4.5,1.671v-7.671h3v81.8Z" transform="translate(3701.75 1024.667)" fill="#fff"/>
</svg>
